<svg width="22" height="22" viewBox="0 0 22 22" fill="none" xmlns="http://www.w3.org/2000/svg">
<path d="M9.16732 15.1252L14.6673 11.0002L9.16732 6.87516V15.1252ZM11.0007 1.8335C5.94065 1.8335 1.83398 5.94016 1.83398 11.0002C1.83398 16.0602 5.94065 20.1668 11.0007 20.1668C16.0607 20.1668 20.1673 16.0602 20.1673 11.0002C20.1673 5.94016 16.0607 1.8335 11.0007 1.8335ZM11.0007 18.3335C6.95815 18.3335 3.66732 15.0427 3.66732 11.0002C3.66732 6.95766 6.95815 3.66683 11.0007 3.66683C15.0432 3.66683 18.334 6.95766 18.334 11.0002C18.334 15.0427 15.0432 18.3335 11.0007 18.3335Z" fill="white"/>
</svg>
